<?xml version="1.0" encoding="UTF-8" standalone="no"?>
<!-- Created with Inkscape (http://www.inkscape.org/) -->

<svg
   xmlns:dc="http://purl.org/dc/elements/1.1/"
   xmlns:cc="http://creativecommons.org/ns#"
   xmlns:rdf="http://www.w3.org/1999/02/22-rdf-syntax-ns#"
   xmlns:svg="http://www.w3.org/2000/svg"
   xmlns="http://www.w3.org/2000/svg"
   xmlns:sodipodi="http://sodipodi.sourceforge.net/DTD/sodipodi-0.dtd"
   xmlns:inkscape="http://www.inkscape.org/namespaces/inkscape"
   width="96"
   height="96"
   viewBox="0 0 25.399999 25.399999"
   version="1.1"
   id="svg4606"
   inkscape:version="0.92.2 (5c3e80d, 2017-08-06)"
   sodipodi:docname="Icon_Exporter.svg"
   inkscape:export-filename="C:\Users\Danie\Downloads\unpause_player.png"
   inkscape:export-xdpi="96"
   inkscape:export-ydpi="96">
  <defs
     id="defs4600" />
  <sodipodi:namedview
     id="base"
     pagecolor="#ffffff"
     bordercolor="#666666"
     borderopacity="1.0"
     inkscape:pageopacity="0.0"
     inkscape:pageshadow="2"
     inkscape:zoom="2.8"
     inkscape:cx="-6.0557799"
     inkscape:cy="43.406589"
     inkscape:document-units="mm"
     inkscape:current-layer="g920"
     showgrid="false"
     units="px"
     inkscape:showpageshadow="false"
     inkscape:window-width="1707"
     inkscape:window-height="897"
     inkscape:window-x="-8"
     inkscape:window-y="-8"
     inkscape:window-maximized="1" />
  <metadata
     id="metadata4603">
    <rdf:RDF>
      <cc:Work
         rdf:about="">
        <dc:format>image/svg+xml</dc:format>
        <dc:type
           rdf:resource="http://purl.org/dc/dcmitype/StillImage" />
        <dc:title />
      </cc:Work>
    </rdf:RDF>
  </metadata>
  <g
     inkscape:label="Layer 1"
     inkscape:groupmode="layer"
     id="layer1"
     transform="translate(0,-271.60001)">
    <g
       id="g920"
       transform="matrix(0.33826167,0,0,-0.33826167,-70.137368,338.21742)">
      <g
         transform="matrix(0.98870368,0,0,0.98870368,224.59599,76.321483)"
         id="g1034">
        <path
           inkscape:connector-curvature="0"
           id="path977"
           d="m 33.42841,75.049849 a 7.8308895,11.349615 0 0 1 -0.0156,-0.4579 7.8308895,11.349615 0 0 1 5.57455,-10.85688 7.8308895,11.349615 0 0 1 -5.57455,-10.85844 7.8308895,11.349615 0 0 1 0.0156,-0.45633 h 15.63596 a 7.8308895,11.349615 0 0 1 0.0109,0.45633 7.8308895,11.349615 0 0 1 -5.55894,10.85844 7.8308895,11.349615 0 0 1 5.55894,10.85688 7.8308895,11.349615 0 0 1 -0.0109,0.4579 z"
           style="opacity:1;fill:#7fb1d8;fill-opacity:1;fill-rule:nonzero;stroke:#255177;stroke-width:1.09137475;stroke-linecap:round;stroke-miterlimit:4;stroke-dasharray:none;stroke-opacity:1;paint-order:stroke fill markers" />
        <rect
           ry="0.30359903"
           y="-76.227554"
           x="32.677181"
           height="2.0099902"
           width="17.291023"
           id="rect979"
           style="opacity:1;fill:#7d520d;fill-opacity:1;fill-rule:nonzero;stroke:none;stroke-width:0.63283318;stroke-linecap:round;stroke-miterlimit:4;stroke-dasharray:none;stroke-opacity:1;paint-order:stroke fill markers"
           transform="scale(1,-1)" />
        <rect
           ry="0.37971082"
           style="opacity:1;fill:#7d520d;fill-opacity:1;fill-rule:nonzero;stroke:none;stroke-width:0.63301003;stroke-linecap:round;stroke-miterlimit:4;stroke-dasharray:none;stroke-opacity:1;paint-order:stroke fill markers"
           id="rect981"
           width="17.291023"
           height="2.0111134"
           x="32.677181"
           y="50.593616" />
        <path
           sodipodi:nodetypes="ccccc"
           inkscape:connector-curvature="0"
           id="path983"
           d="m 42.30939,62.799879 1.56188,0.11125 c 2.77149,-2.08035 4.16756,-5.08522 4.30988,-8.84032 l -2.91672,-0.0595 c -0.0373,3.68237 -0.0966,6.56199 -2.95504,8.78854 z"
           style="opacity:1;fill:#b8d3e9;fill-opacity:1;fill-rule:nonzero;stroke:none;stroke-width:0.48309413;stroke-linecap:round;stroke-miterlimit:4;stroke-dasharray:none;stroke-opacity:1;paint-order:stroke fill markers" />
        <g
           id="g1068">
          <g
             id="g1270">
            <rect
               y="174.5778"
               x="58.912128"
               height="4.2643762"
               width="39.976696"
               id="rect851"
               style="opacity:1;fill:#000000;fill-opacity:1;fill-rule:nonzero;stroke:none;stroke-width:1.39197958;stroke-linecap:round;stroke-miterlimit:4;stroke-dasharray:none;stroke-opacity:1;paint-order:stroke fill markers"
               transform="matrix(1.3390315,0,0,-1.3390315,-87.951665,325.49589)" />
            <path
               sodipodi:nodetypes="cccccc"
               inkscape:connector-curvature="0"
               id="path853"
               d="m 70.964797,201.92946 3.54185,-0.91749 h 4.06566 v 4.47276 h -7.58257 z"
               style="opacity:1;fill:#000000;fill-opacity:1;fill-rule:nonzero;stroke:none;stroke-width:1.80371106;stroke-linecap:round;stroke-miterlimit:4;stroke-dasharray:none;stroke-opacity:1;paint-order:stroke fill markers"
               transform="matrix(1.3390315,0,0,-1.3390315,-87.951665,325.49589)" />
            <path
               style="opacity:1;fill:#000000;fill-opacity:1;fill-rule:nonzero;stroke:none;stroke-width:1.76708376;stroke-linecap:round;stroke-miterlimit:4;stroke-dasharray:none;stroke-opacity:1;paint-order:stroke fill markers"
               d="m 85.738557,201.92946 -3.39947,-0.91749 h -3.90222 v 4.47276 h 7.27775 z"
               id="path855"
               inkscape:connector-curvature="0"
               sodipodi:nodetypes="cccccc"
               transform="matrix(1.3390315,0,0,-1.3390315,-87.951665,325.49589)" />
            <path
               style="opacity:1;fill:#000000;fill-opacity:1;fill-rule:nonzero;stroke:none;stroke-width:1.27205729;stroke-linecap:round;stroke-miterlimit:4;stroke-dasharray:none;stroke-opacity:1;paint-order:stroke fill markers"
               d="m 74.561747,184.56673 h 8.23566 V 201.999 h -8.23566 c 0,-2.48205 0,-4.9641 0,-7.44615 z"
               id="path857"
               inkscape:connector-curvature="0"
               sodipodi:nodetypes="cccccc"
               transform="matrix(1.3390315,0,0,-1.3390315,-87.951665,325.49589)" />
            <rect
               ry="1.1468598"
               y="170.16232"
               x="72.086227"
               height="20.76038"
               width="13.299618"
               id="rect859"
               style="opacity:1;fill:#000000;fill-opacity:1;fill-rule:nonzero;stroke:none;stroke-width:2.23300791;stroke-linecap:round;stroke-miterlimit:4;stroke-dasharray:none;stroke-opacity:1;paint-order:stroke fill markers"
               transform="matrix(1.3390315,0,0,-1.3390315,-87.951665,325.49589)" />
            <circle
               r="6.7038727"
               cy="162.85719"
               cx="78.761154"
               id="circle861"
               style="opacity:1;fill:#000000;fill-opacity:1;fill-rule:nonzero;stroke:none;stroke-width:2.23300791;stroke-linecap:round;stroke-miterlimit:4;stroke-dasharray:none;stroke-opacity:1;paint-order:stroke fill markers"
               transform="matrix(1.3390315,0,0,-1.3390315,-87.951665,325.49589)" />
            <path
               inkscape:connector-curvature="0"
               id="path1003"
               d="m 42.456968,75.675897 a 12.728693,12.728693 0 0 1 -13.99386,-11.325043 12.728693,12.728693 0 0 1 11.32521,-13.992218 12.728693,12.728693 0 0 1 13.99205,11.323571 12.728693,12.728693 0 0 1 -11.3234,13.99369 z m -0.21835,-2.071424 a 10.645816,10.645816 0 0 0 9.47033,-11.70392 10.645816,10.645816 0 0 0 -11.70228,-9.470493 10.645816,10.645816 0 0 0 -9.47214,11.702449 10.645816,10.645816 0 0 0 11.70409,9.471964 z"
               style="opacity:1;fill:#d40000;fill-opacity:1;fill-rule:nonzero;stroke:none;stroke-width:0.63725913;stroke-linecap:round;stroke-miterlimit:4;stroke-dasharray:none;stroke-opacity:1;paint-order:stroke fill markers" />
            <rect
               transform="matrix(0.63513953,-0.77239742,-0.77239742,-0.63513953,0,0)"
               y="-82.896149"
               x="-24.177374"
               height="21.852156"
               width="3.0902038"
               id="rect1008"
               style="opacity:1;fill:#d40000;fill-opacity:1;fill-rule:nonzero;stroke:none;stroke-width:0.60779065;stroke-linecap:round;stroke-miterlimit:4;stroke-dasharray:none;stroke-opacity:1;paint-order:stroke fill markers" />
          </g>
        </g>
      </g>
    </g>
  </g>
</svg>
